<mxfile host="app.diagrams.net" modified="2024-05-15T11:47:34.093Z" agent="Mozilla/5.0 (Windows NT 10.0; Win64; x64) AppleWebKit/537.36 (KHTML, like Gecko) Chrome/124.0.0.0 Safari/537.36" etag="GYPxEwbauCqsNEf7RL8-" version="24.4.0" type="device">
  <diagram name="Page-1" id="XkIY3qJgvqF8j0RROFml">
    <mxGraphModel dx="1050" dy="596" grid="1" gridSize="10" guides="1" tooltips="1" connect="1" arrows="1" fold="1" page="1" pageScale="1" pageWidth="850" pageHeight="1100" math="0" shadow="0">
      <root>
        <mxCell id="0" />
        <mxCell id="1" parent="0" />
        <mxCell id="PCuyU2KX_S0t83LN1JUA-1" value="ESP" style="rounded=0;whiteSpace=wrap;html=1;" vertex="1" parent="1">
          <mxGeometry x="120" y="240" width="120" height="60" as="geometry" />
        </mxCell>
        <mxCell id="PCuyU2KX_S0t83LN1JUA-2" value="Kjálka servo" style="ellipse;whiteSpace=wrap;html=1;" vertex="1" parent="1">
          <mxGeometry x="220" y="120" width="120" height="80" as="geometry" />
        </mxCell>
        <mxCell id="PCuyU2KX_S0t83LN1JUA-3" value="" style="endArrow=classic;html=1;rounded=0;" edge="1" parent="1">
          <mxGeometry width="50" height="50" relative="1" as="geometry">
            <mxPoint x="190" y="240" as="sourcePoint" />
            <mxPoint x="240" y="190" as="targetPoint" />
          </mxGeometry>
        </mxCell>
        <mxCell id="PCuyU2KX_S0t83LN1JUA-4" value="ESP" style="rounded=0;whiteSpace=wrap;html=1;" vertex="1" parent="1">
          <mxGeometry x="650" y="240" width="120" height="60" as="geometry" />
        </mxCell>
        <mxCell id="PCuyU2KX_S0t83LN1JUA-5" value="Kjálki servo" style="ellipse;whiteSpace=wrap;html=1;" vertex="1" parent="1">
          <mxGeometry x="650" y="50" width="120" height="80" as="geometry" />
        </mxCell>
        <mxCell id="PCuyU2KX_S0t83LN1JUA-6" value="Hakka servo" style="ellipse;whiteSpace=wrap;html=1;aspect=fixed;" vertex="1" parent="1">
          <mxGeometry x="150" y="70" width="80" height="80" as="geometry" />
        </mxCell>
        <mxCell id="PCuyU2KX_S0t83LN1JUA-7" value="Hendi servo" style="ellipse;whiteSpace=wrap;html=1;aspect=fixed;" vertex="1" parent="1">
          <mxGeometry x="580" y="140" width="80" height="80" as="geometry" />
        </mxCell>
        <mxCell id="PCuyU2KX_S0t83LN1JUA-8" value="Hendi servo" style="ellipse;whiteSpace=wrap;html=1;aspect=fixed;" vertex="1" parent="1">
          <mxGeometry x="750" y="140" width="80" height="80" as="geometry" />
        </mxCell>
        <mxCell id="PCuyU2KX_S0t83LN1JUA-9" value="" style="endArrow=classic;html=1;rounded=0;entryX=0.41;entryY=1.02;entryDx=0;entryDy=0;entryPerimeter=0;" edge="1" parent="1" target="PCuyU2KX_S0t83LN1JUA-6">
          <mxGeometry width="50" height="50" relative="1" as="geometry">
            <mxPoint x="160" y="240" as="sourcePoint" />
            <mxPoint x="210" y="190" as="targetPoint" />
          </mxGeometry>
        </mxCell>
        <mxCell id="PCuyU2KX_S0t83LN1JUA-10" value="" style="endArrow=classic;html=1;rounded=0;entryX=0.5;entryY=1;entryDx=0;entryDy=0;" edge="1" parent="1" target="PCuyU2KX_S0t83LN1JUA-5">
          <mxGeometry width="50" height="50" relative="1" as="geometry">
            <mxPoint x="710" y="240" as="sourcePoint" />
            <mxPoint x="760" y="190" as="targetPoint" />
          </mxGeometry>
        </mxCell>
        <mxCell id="PCuyU2KX_S0t83LN1JUA-11" value="" style="endArrow=classic;html=1;rounded=0;entryX=1;entryY=1;entryDx=0;entryDy=0;" edge="1" parent="1" target="PCuyU2KX_S0t83LN1JUA-7">
          <mxGeometry width="50" height="50" relative="1" as="geometry">
            <mxPoint x="670" y="240" as="sourcePoint" />
            <mxPoint x="720" y="190" as="targetPoint" />
          </mxGeometry>
        </mxCell>
        <mxCell id="PCuyU2KX_S0t83LN1JUA-12" value="" style="endArrow=classic;html=1;rounded=0;entryX=0;entryY=1;entryDx=0;entryDy=0;" edge="1" parent="1" target="PCuyU2KX_S0t83LN1JUA-8">
          <mxGeometry width="50" height="50" relative="1" as="geometry">
            <mxPoint x="730" y="240" as="sourcePoint" />
            <mxPoint x="780" y="190" as="targetPoint" />
          </mxGeometry>
        </mxCell>
        <mxCell id="PCuyU2KX_S0t83LN1JUA-13" value="MQTT" style="ellipse;shape=cloud;whiteSpace=wrap;html=1;" vertex="1" parent="1">
          <mxGeometry x="390" y="320" width="120" height="80" as="geometry" />
        </mxCell>
        <mxCell id="PCuyU2KX_S0t83LN1JUA-14" value="" style="endArrow=none;dashed=1;html=1;rounded=0;entryX=0.07;entryY=0.4;entryDx=0;entryDy=0;entryPerimeter=0;" edge="1" parent="1" target="PCuyU2KX_S0t83LN1JUA-13">
          <mxGeometry width="50" height="50" relative="1" as="geometry">
            <mxPoint x="240" y="280" as="sourcePoint" />
            <mxPoint x="290" y="230" as="targetPoint" />
          </mxGeometry>
        </mxCell>
        <mxCell id="PCuyU2KX_S0t83LN1JUA-15" value="" style="endArrow=none;dashed=1;html=1;rounded=0;exitX=0.88;exitY=0.25;exitDx=0;exitDy=0;exitPerimeter=0;" edge="1" parent="1" source="PCuyU2KX_S0t83LN1JUA-13">
          <mxGeometry width="50" height="50" relative="1" as="geometry">
            <mxPoint x="600" y="340" as="sourcePoint" />
            <mxPoint x="650" y="290" as="targetPoint" />
          </mxGeometry>
        </mxCell>
      </root>
    </mxGraphModel>
  </diagram>
</mxfile>
